<svg width="192" height="192" viewBox="0 0 192 192" xmlns="http://www.w3.org/2000/svg">
  <defs>
    <linearGradient id="bgGradient" x1="0%" y1="0%" x2="100%" y2="100%">
      <stop offset="0%" style="stop-color:#1DA1F2;stop-opacity:1" />
      <stop offset="100%" style="stop-color:#0D8BD9;stop-opacity:1" />
    </linearGradient>
    <filter id="shadow" x="-20%" y="-20%" width="140%" height="140%">
      <feDropShadow dx="0" dy="4" stdDeviation="8" flood-color="#000000" flood-opacity="0.25"/>
    </filter>
  </defs>
  
  <rect width="192" height="192" rx="48" fill="url(#bgGradient)" filter="url(#shadow)"/>
  
  <g transform="translate(48, 48)">
    <path d="M48 0C21.5 0 0 21.5 0 48s21.5 48 48 48 48-21.5 48-48-21.5-48-48-48zm0 88c-22.1 0-40-17.9-40-40s17.9-40 40-40 40 17.9 40 40-17.9 40-40 40z" fill="white" opacity="0.3"/>
    <path d="M48 16c-17.7 0-32 14.3-32 32s14.3 32 32 32 32-14.3 32-32-14.3-32-32-32zm0 56c-13.3 0-24-10.7-24-24s10.7-24 24-24 24 10.7 24 24-10.7 24-24 24z" fill="white" opacity="0.5"/>
    <path d="M48 24c-13.3 0-24 10.7-24 24s10.7 24 24 24 24-10.7 24-24-10.7-24-24-24zm8 32l-16-8v-16l16-8v16z" fill="white"/>
  </g>
</svg>