<svg width="1080" height="1920" viewBox="0 0 1080 1920" xmlns="http://www.w3.org/2000/svg">
  <defs>
    <linearGradient id="splashGradient" x1="0%" y1="0%" x2="100%" y2="100%">
      <stop offset="0%" style="stop-color:#15202B;stop-opacity:1" />
      <stop offset="100%" style="stop-color:#1DA1F2;stop-opacity:0.3" />
    </linearGradient>
    <filter id="glow" x="-50%" y="-50%" width="200%" height="200%">
      <feGaussianBlur stdDeviation="20" result="coloredBlur"/>
      <feMerge>
        <feMergeNode in="coloredBlur"/>
        <feMergeNode in="SourceGraphic"/>
      </feMerge>
    </filter>
  </defs>
  
  <rect width="1080" height="1920" fill="url(#splashGradient)"/>
  
  <g transform="translate(540, 960)" filter="url(#glow)">
    <circle cx="0" cy="0" r="200" fill="#1DA1F2" opacity="0.2"/>
    <circle cx="0" cy="0" r="160" fill="#1DA1F2" opacity="0.3"/>
    <circle cx="0" cy="0" r="120" fill="#1DA1F2" opacity="0.4"/>
    
    <g transform="translate(-80, -80)">
      <path d="M80 0C35.8 0 0 35.8 0 80s35.8 80 80 80 80-35.8 80-80-35.8-80-80-80zm0 140c-33.1 0-60-26.9-60-60s26.9-60 60-60 60 26.9 60 60-26.9 60-60 60z" fill="white" opacity="0.3"/>
      <path d="M80 20c-33.1 0-60 26.9-60 60s26.9 60 60 60 60-26.9 60-60-26.9-60-60-60zm0 100c-22.1 0-40-17.9-40-40s17.9-40 40-40 40 17.9 40 40-17.9 40-40 40z" fill="white" opacity="0.5"/>
      <path d="M80 30c-27.6 0-50 22.4-50 50s22.4 50 50 50 50-22.4 50-50-22.4-50-50-50zm12 60l-24-12v-24l24-12v24z" fill="white"/>
    </g>
  </g>
  
  <text x="540" y="1350" text-anchor="middle" font-family="Arial, sans-serif" font-size="48" font-weight="bold" fill="#FFFFFF">
    Twitter Media Harvest
  </text>
  
  <text x="540" y="1420" text-anchor="middle" font-family="Arial, sans-serif" font-size="28" fill="#8899A6">
    Download media from Twitter/X
  </text>
  
  <g transform="translate(540, 1700)">
    <circle cx="0" cy="0" r="30" fill="none" stroke="#1DA1F2" stroke-width="4" opacity="0.3"/>
    <circle cx="0" cy="0" r="20" fill="none" stroke="#1DA1F2" stroke-width="4" opacity="0.5"/>
    <circle cx="0" cy="0" r="10" fill="#1DA1F2"/>
  </g>
</svg>